<svg xmlns="http://www.w3.org/2000/svg" xmlns:xlink="http://www.w3.org/1999/xlink" version="1.1" width="256" height="256" viewBox="0 0 256 256" xml:space="preserve">
<g style="stroke: none; stroke-width: 0; stroke-dasharray: none; stroke-linecap: butt; stroke-linejoin: miter; stroke-miterlimit: 10; fill: none; fill-rule: nonzero; opacity: 1;" transform="translate(1.4065934065934016 1.4065934065934016) scale(2.81 2.81)">
	<polygon points="61.44,65.76 61.44,64.09 38.2,64.09 38.2,65.76 35.97,78.79 35.97,79.74 63.67,79.74 63.67,78.79 " style="stroke: none; stroke-width: 1; stroke-dasharray: none; stroke-linecap: butt; stroke-linejoin: miter; stroke-miterlimit: 10; fill: rgb(201,207,212); fill-rule: nonzero; opacity: 1;" transform="  matrix(1 0 0 1 0 0) "/>
	<path d="M 87.129 65.757 H 12.512 c -1.586 0 -2.871 -1.285 -2.871 -2.871 V 49.96 H 90 v 12.926 C 90 64.472 88.715 65.757 87.129 65.757 z" style="stroke: none; stroke-width: 1; stroke-dasharray: none; stroke-linecap: butt; stroke-linejoin: miter; stroke-miterlimit: 10; fill: rgb(176,182,188); fill-rule: nonzero; opacity: 1;" transform=" matrix(1 0 0 1 0 0) " stroke-linecap="round"/>
	<rect x="29.13" y="78.79" rx="0" ry="0" width="41.38" height="6.8" style="stroke: none; stroke-width: 1; stroke-dasharray: none; stroke-linecap: butt; stroke-linejoin: miter; stroke-miterlimit: 10; fill: rgb(176,182,188); fill-rule: nonzero; opacity: 1;" transform=" matrix(1 0 0 1 0 0) "/>
	<path d="M 90 50.96 H 9.641 V 7.276 c 0 -1.586 1.285 -2.871 2.871 -2.871 h 74.617 C 88.715 4.405 90 5.691 90 7.276 V 50.96 z" style="stroke: none; stroke-width: 1; stroke-dasharray: none; stroke-linecap: butt; stroke-linejoin: miter; stroke-miterlimit: 10; fill: rgb(201,207,212); fill-rule: nonzero; opacity: 1;" transform=" matrix(1 0 0 1 0 0) " stroke-linecap="round"/>
	<path d="M 41.794 28.25 H 28.303 c -0.552 0 -1 -0.448 -1 -1 s 0.448 -1 1 -1 h 13.492 c 0.552 0 1 0.448 1 1 S 42.347 28.25 41.794 28.25 z" style="stroke: none; stroke-width: 1; stroke-dasharray: none; stroke-linecap: butt; stroke-linejoin: miter; stroke-miterlimit: 10; fill: rgb(240,240,240); fill-rule: nonzero; opacity: 1;" transform=" matrix(1 0 0 1 0 0) " stroke-linecap="round"/>
	<path d="M 41.794 40.432 h -2.685 c -0.306 0 -0.595 -0.14 -0.785 -0.38 l -3.311 -4.191 h -6.711 c -0.552 0 -1 -0.448 -1 -1 s 0.448 -1 1 -1 h 7.195 c 0.306 0 0.595 0.14 0.785 0.38 l 3.311 4.191 h 2.201 c 0.552 0 1 0.448 1 1 S 42.347 40.432 41.794 40.432 z" style="stroke: none; stroke-width: 1; stroke-dasharray: none; stroke-linecap: butt; stroke-linejoin: miter; stroke-miterlimit: 10; fill: rgb(240,240,240); fill-rule: nonzero; opacity: 1;" transform=" matrix(1 0 0 1 0 0) " stroke-linecap="round"/>
	<path d="M 35.498 20.639 h -7.195 c -0.552 0 -1 -0.448 -1 -1 s 0.448 -1 1 -1 h 6.711 l 3.311 -4.191 c 0.189 -0.24 0.479 -0.38 0.785 -0.38 h 2.685 c 0.552 0 1 0.448 1 1 s -0.448 1 -1 1 h -2.201 l -3.311 4.191 C 36.093 20.499 35.804 20.639 35.498 20.639 z" style="stroke: none; stroke-width: 1; stroke-dasharray: none; stroke-linecap: butt; stroke-linejoin: miter; stroke-miterlimit: 10; fill: rgb(240,240,240); fill-rule: nonzero; opacity: 1;" transform=" matrix(1 0 0 1 0 0) " stroke-linecap="round"/>
	<circle cx="45.769" cy="39.428999999999995" r="3.449" style="stroke: none; stroke-width: 1; stroke-dasharray: none; stroke-linecap: butt; stroke-linejoin: miter; stroke-miterlimit: 10; fill: rgb(247,191,80); fill-rule: nonzero; opacity: 1;" transform="  matrix(1 0 0 1 0 0) "/>
	<circle cx="45.769" cy="27.249000000000002" r="3.449" style="stroke: none; stroke-width: 1; stroke-dasharray: none; stroke-linecap: butt; stroke-linejoin: miter; stroke-miterlimit: 10; fill: rgb(126,198,197); fill-rule: nonzero; opacity: 1;" transform="  matrix(1 0 0 1 0 0) "/>
	<circle cx="45.769" cy="15.068999999999999" r="3.449" style="stroke: none; stroke-width: 1; stroke-dasharray: none; stroke-linecap: butt; stroke-linejoin: miter; stroke-miterlimit: 10; fill: rgb(241,123,123); fill-rule: nonzero; opacity: 1;" transform="  matrix(1 0 0 1 0 0) "/>
	<path d="M 0 37.545 l 0 -20.589 c 0 -2.013 1.632 -3.644 3.644 -3.644 l 20.589 0 c 2.013 0 3.644 1.632 3.644 3.644 l 0 20.589 c 0 2.013 -1.632 3.644 -3.644 3.644 l -20.589 0 C 1.632 41.189 0 39.557 0 37.545 z" style="stroke: none; stroke-width: 1; stroke-dasharray: none; stroke-linecap: butt; stroke-linejoin: miter; stroke-miterlimit: 10; fill: rgb(247,191,80); fill-rule: nonzero; opacity: 1;" transform=" matrix(1 0 0 1 0 0) " stroke-linecap="round"/>
	<path d="M 10.214 20.567 H 8.06 c -1.902 0 -3.45 1.548 -3.45 3.451 v 8.915 c 0 0.552 0.448 1 1 1 s 1 -0.448 1 -1 V 28.25 h 5.054 v 4.683 c 0 0.552 0.448 1 1 1 s 1 -0.448 1 -1 v -8.915 C 13.664 22.115 12.116 20.567 10.214 20.567 z M 6.61 26.25 v -2.232 c 0 -0.8 0.65 -1.451 1.45 -1.451 h 2.153 c 0.8 0 1.45 0.651 1.45 1.451 v 2.232 H 6.61 z" style="stroke: none; stroke-width: 1; stroke-dasharray: none; stroke-linecap: butt; stroke-linejoin: miter; stroke-miterlimit: 10; fill: rgb(193,132,45); fill-rule: nonzero; opacity: 1;" transform=" matrix(1 0 0 1 0 0) " stroke-linecap="round"/>
	<path d="M 22.268 31.933 h -1.33 v -9.365 h 1.33 c 0.552 0 1 -0.448 1 -1 s -0.448 -1 -1 -1 h -4.66 c -0.552 0 -1 0.448 -1 1 s 0.448 1 1 1 h 1.33 v 9.365 h -1.33 c -0.552 0 -1 0.448 -1 1 s 0.448 1 1 1 h 4.66 c 0.552 0 1 -0.448 1 -1 S 22.82 31.933 22.268 31.933 z" style="stroke: none; stroke-width: 1; stroke-dasharray: none; stroke-linecap: butt; stroke-linejoin: miter; stroke-miterlimit: 10; fill: rgb(193,132,45); fill-rule: nonzero; opacity: 1;" transform=" matrix(1 0 0 1 0 0) " stroke-linecap="round"/>
	<path d="M 61.696 33.762 c -0.256 0 -0.512 -0.098 -0.707 -0.293 l -5.14 -5.14 c -0.391 -0.391 -0.391 -1.023 0 -1.414 l 5.14 -5.14 c 0.391 -0.391 1.023 -0.391 1.414 0 s 0.391 1.023 0 1.414 l -4.433 4.433 l 4.433 4.433 c 0.391 0.391 0.391 1.023 0 1.414 C 62.208 33.665 61.952 33.762 61.696 33.762 z" style="stroke: none; stroke-width: 1; stroke-dasharray: none; stroke-linecap: butt; stroke-linejoin: miter; stroke-miterlimit: 10; fill: rgb(176,182,188); fill-rule: nonzero; opacity: 1;" transform=" matrix(1 0 0 1 0 0) " stroke-linecap="round"/>
	<path d="M 74.893 33.762 c -0.256 0 -0.512 -0.098 -0.707 -0.293 c -0.391 -0.391 -0.391 -1.023 0 -1.414 l 4.433 -4.433 l -4.433 -4.433 c -0.391 -0.391 -0.391 -1.023 0 -1.414 s 1.023 -0.391 1.414 0 l 5.14 5.14 c 0.391 0.391 0.391 1.023 0 1.414 l -5.14 5.14 C 75.404 33.665 75.148 33.762 74.893 33.762 z" style="stroke: none; stroke-width: 1; stroke-dasharray: none; stroke-linecap: butt; stroke-linejoin: miter; stroke-miterlimit: 10; fill: rgb(176,182,188); fill-rule: nonzero; opacity: 1;" transform=" matrix(1 0 0 1 0 0) " stroke-linecap="round"/>
	<path d="M 66.087 37.224 c -0.087 0 -0.175 -0.012 -0.263 -0.035 c -0.532 -0.145 -0.848 -0.693 -0.703 -1.227 l 4.417 -16.315 c 0.144 -0.534 0.691 -0.849 1.227 -0.704 c 0.532 0.145 0.848 0.693 0.703 1.227 l -4.417 16.315 C 66.931 36.931 66.527 37.224 66.087 37.224 z" style="stroke: none; stroke-width: 1; stroke-dasharray: none; stroke-linecap: butt; stroke-linejoin: miter; stroke-miterlimit: 10; fill: rgb(176,182,188); fill-rule: nonzero; opacity: 1;" transform=" matrix(1 0 0 1 0 0) " stroke-linecap="round"/>
</g>
</svg>