<svg width="800" height="450" viewBox="0 0 800 450" xmlns="http://www.w3.org/2000/svg" role="img" aria-labelledby="title desc">
  <title id="title">Testcontainers and LocalStack cover</title>
  <desc id="desc">Cloud testing themed illustration with containers</desc>
  <defs>
    <linearGradient id="cloud" x1="0%" y1="0%" x2="100%" y2="100%">
      <stop offset="0%" stop-color="#ede9fe" />
      <stop offset="100%" stop-color="#e0f2fe" />
    </linearGradient>
    <linearGradient id="bars" x1="0%" y1="0%" x2="0%" y2="100%">
      <stop offset="0%" stop-color="#38bdf8" />
      <stop offset="100%" stop-color="#0ea5e9" />
    </linearGradient>
  </defs>
  <rect width="800" height="450" rx="32" fill="#0f172a" />
  <circle cx="640" cy="120" r="120" fill="#1d4ed8" opacity="0.3" />
  <circle cx="220" cy="330" r="150" fill="#2563eb" opacity="0.25" />
  <path d="M180 170 C220 120 320 120 360 170 C400 220 520 220 560 170 C600 120 720 120 740 180 L740 260 L180 260Z" fill="url(#cloud)" opacity="0.9" />
  <rect x="220" y="220" width="360" height="140" rx="24" fill="#020617" stroke="#38bdf8" stroke-width="2" />
  <rect x="260" y="250" width="80" height="70" rx="10" fill="#38bdf8" opacity="0.8" />
  <rect x="360" y="250" width="80" height="70" rx="10" fill="#22d3ee" opacity="0.9" />
  <rect x="460" y="250" width="80" height="70" rx="10" fill="#38bdf8" opacity="0.8" />
  <g transform="translate(250 180)" opacity="0.8">
    <rect x="0" y="0" width="40" height="90" rx="8" fill="url(#bars)" />
    <rect x="60" y="20" width="40" height="70" rx="8" fill="url(#bars)" />
    <rect x="120" y="45" width="40" height="45" rx="8" fill="url(#bars)" />
  </g>
  <circle cx="600" cy="290" r="36" fill="#0f172a" stroke="#22d3ee" stroke-width="4" />
  <path d="M585 290 L615 290 M600 275 L600 305" stroke="#22d3ee" stroke-width="6" stroke-linecap="round" />
</svg>
